<svg xmlns="http://www.w3.org/2000/svg" version="1.1" xmlns:xlink="http://www.w3.org/1999/xlink" xmlns:svgjs="http://svgjs.dev/svgjs" width="1000" height="202" viewBox="0 0 1000 202"><g transform="matrix(1,0,0,1,-0.6060595860830063,0.29653064090317116)"><svg viewBox="0 0 396 80" data-background-color="#ffffff" preserveAspectRatio="xMidYMid meet" height="202" width="1000" xmlns="http://www.w3.org/2000/svg" xmlns:xlink="http://www.w3.org/1999/xlink"><g id="tight-bounds" transform="matrix(1,0,0,1,0.23999959608886456,-0.11743787758541657)"><svg viewBox="0 0 395.52 80.23487575517082" height="80.23487575517082" width="395.52"><g><svg viewBox="0 0 546.1901350173171 110.79970070240294" height="80.23487575517082" width="395.52"><g><rect width="9.151153727537213" height="110.79970070240294" x="117.56308147947297" y="0" fill="#61777f" opacity="1" stroke-width="0" stroke="transparent" fill-opacity="1" class="rect-o-0" data-fill-palette-color="primary" rx="1%" id="o-0" data-palette-color="#61777f"></rect></g><g transform="matrix(1,0,0,1,150.67013501731702,0.27562114602586973)"><svg viewBox="0 0 395.52 110.2484584103512" height="110.2484584103512" width="395.52"><g><svg viewBox="0 0 395.52 110.2484584103512" height="110.2484584103512" width="395.52"><g><svg viewBox="0 0 395.52 110.2484584103512" height="110.2484584103512" width="395.52"><g transform="matrix(1,0,0,1,0,0)"><svg width="395.52" viewBox="1.1499996185302734 -34.29999923706055 135.25 34.69999694824219" height="110.2484584103512" data-palette-color="#61777f"><svg></svg><g class="undefined-text-0" data-fill-palette-color="primary" id="text-0"><path xmlns="http://www.w3.org/2000/svg" d="M13.45-14.3v0l-0.35 1.2h8.1l-0.35-1.2c-0.967-3.267-1.757-6.05-2.37-8.35-0.62-2.3-0.997-3.783-1.13-4.45v0l-0.2-1c-0.267 1.833-1.5 6.433-3.7 13.8zM11.25-6.9l-2.05 6.9h-8.05l11.25-33.7h9.7l11.25 33.7h-8.25l-2.05-6.9zM58.7-6.15v6.15h-20.95v-33.7h20.75v6.15h-13v7.65h11.6v6.1h-11.6v7.65zM94-20.1v17c-3.2 2.333-7.233 3.5-12.1 3.5v0c-5.4 0-9.783-1.55-13.15-4.65-3.367-3.1-5.05-7.317-5.05-12.65v0c0-5.267 1.76-9.483 5.28-12.65 3.513-3.167 7.97-4.75 13.37-4.75v0c3.8 0 7.083 0.7 9.85 2.1v0 7.7c-3.2-1.833-6.483-2.75-9.85-2.75v0c-3.167 0-5.683 0.94-7.55 2.82-1.867 1.887-2.8 4.397-2.8 7.53v0c0 3.167 0.917 5.683 2.75 7.55 1.833 1.867 4.333 2.8 7.5 2.8v0c1.433 0 2.85-0.217 4.25-0.65v0-6.35h-5.45v-6.55zM108.45-33.7v33.7h-7.7v-33.7zM136.4-9.8v0c0 3.033-1.117 5.49-3.35 7.37-2.233 1.887-5.2 2.83-8.9 2.83v0c-3.967 0-7.2-0.7-9.7-2.1v0-7.75c3.033 2.2 6.267 3.3 9.7 3.3v0c1.167 0 2.133-0.31 2.9-0.93 0.767-0.613 1.15-1.42 1.15-2.42v0c0-0.333-0.05-0.65-0.15-0.95-0.1-0.3-0.283-0.583-0.55-0.85-0.267-0.267-0.523-0.493-0.77-0.68-0.253-0.18-0.62-0.397-1.1-0.65-0.487-0.247-0.897-0.453-1.23-0.62-0.333-0.167-0.823-0.4-1.47-0.7-0.653-0.3-1.18-0.533-1.58-0.7v0c-2.167-1-3.907-2.233-5.22-3.7-1.32-1.467-1.98-3.417-1.98-5.85v0c0-2.9 1.067-5.243 3.2-7.03 2.133-1.78 5.083-2.67 8.85-2.67v0c3.367 0 6.267 0.567 8.7 1.7v0 7.2c-2.7-1.567-5.5-2.35-8.4-2.35v0c-1.3 0-2.29 0.267-2.97 0.8-0.687 0.533-1.03 1.217-1.03 2.05 0 0.833 0.417 1.573 1.25 2.22 0.833 0.653 2.083 1.347 3.75 2.08v0c1.033 0.467 1.89 0.873 2.57 1.22 0.687 0.353 1.473 0.837 2.36 1.45 0.88 0.62 1.58 1.27 2.1 1.95 0.513 0.687 0.953 1.53 1.32 2.53 0.367 1 0.55 2.083 0.55 3.25z" fill="#61777f" fill-rule="nonzero" stroke="none" stroke-width="1" stroke-linecap="butt" stroke-linejoin="miter" stroke-miterlimit="10" stroke-dasharray="" stroke-dashoffset="0" font-family="none" font-weight="none" font-size="none" text-anchor="none" style="mix-blend-mode: normal" data-fill-palette-color="primary" opacity="1"></path></g></svg></g></svg></g></svg></g></svg></g><g transform="matrix(1,0,0,1,0,0.27562114602586973)"><svg viewBox="0 0 93.60718166916612 110.2484584103512" height="110.2484584103512" width="93.60718166916612"><g><svg xmlns="http://www.w3.org/2000/svg" xmlns:xlink="http://www.w3.org/1999/xlink" version="1.1" x="0" y="0" viewBox="9.5 5.5 45 53" enable-background="new 0 0 64 64" xml:space="preserve" height="110.2484584103512" width="93.60718166916612" class="icon-icon-0" data-fill-palette-color="accent" id="icon-0"><g fill="#61777f" data-fill-palette-color="accent"><g fill="#61777f" data-fill-palette-color="accent"><path d="M54 15.5c-9.084 0-13.5-3.107-13.5-9.5 0-0.276-0.224-0.5-0.5-0.5H24c-0.276 0-0.5 0.224-0.5 0.5 0 6.393-4.416 9.5-13.5 9.5-0.276 0-0.5 0.224-0.5 0.5v18c0 10.1 21.323 23.841 22.231 24.421C31.813 58.474 31.906 58.5 32 58.5s0.187-0.026 0.269-0.079C33.177 57.841 54.5 44.1 54.5 34V16C54.5 15.724 54.276 15.5 54 15.5zM53.5 34c0 8.971-18.998 21.759-21.5 23.403C29.499 55.759 10.5 42.971 10.5 34V16.497c9.062-0.118 13.765-3.479 13.991-9.997h15.018c0.227 6.517 4.93 9.878 13.991 9.997V34z" fill="#61777f" data-fill-palette-color="accent"></path><path d="M29.5 32c0 1.379 1.122 2.5 2.5 2.5 1.379 0 2.5-1.121 2.5-2.5 0-1.378-1.121-2.5-2.5-2.5C30.622 29.5 29.5 30.622 29.5 32zM33.5 32c0 0.827-0.673 1.5-1.5 1.5s-1.5-0.673-1.5-1.5 0.673-1.5 1.5-1.5S33.5 31.173 33.5 32z" fill="#61777f" data-fill-palette-color="accent"></path><path d="M37.085 28.777c-0.244 0.128-0.339 0.431-0.21 0.675C37.29 30.242 37.5 31.099 37.5 32c0 3.033-2.468 5.5-5.5 5.5-3.033 0-5.5-2.467-5.5-5.5 0-0.609 0.099-1.207 0.293-1.778 0.089-0.262-0.05-0.546-0.312-0.635-0.263-0.09-0.546 0.05-0.635 0.312C25.617 30.574 25.5 31.281 25.5 32c0 3.584 2.916 6.5 6.5 6.5s6.5-2.916 6.5-6.5c0-1.049-0.256-2.091-0.74-3.013C37.632 28.742 37.327 28.65 37.085 28.777z" fill="#61777f" data-fill-palette-color="accent"></path><path d="M35.321 26.978c0.133-0.242 0.044-0.546-0.198-0.679C34.172 25.776 33.092 25.5 32 25.5c-1.819 0-3.567 0.771-4.797 2.115-0.186 0.204-0.172 0.52 0.032 0.707 0.096 0.087 0.217 0.131 0.337 0.131 0.135 0 0.271-0.055 0.369-0.163 1.041-1.137 2.52-1.79 4.059-1.79 0.924 0 1.837 0.233 2.643 0.676C34.882 27.307 35.188 27.221 35.321 26.978z" fill="#61777f" data-fill-palette-color="accent"></path><path d="M38.863 24.054c-0.209-0.179-0.524-0.158-0.705 0.051S38 24.63 38.209 24.811C40.301 26.618 41.5 29.239 41.5 32c0 0.963-0.145 1.914-0.429 2.826-0.082 0.264 0.065 0.544 0.329 0.626 0.049 0.016 0.1 0.022 0.148 0.022 0.213 0 0.41-0.137 0.478-0.352C42.341 34.115 42.5 33.064 42.5 32 42.5 28.948 41.175 26.052 38.863 24.054z" fill="#61777f" data-fill-palette-color="accent"></path><path d="M34.033 41.807c0.059 0.225 0.262 0.374 0.484 0.374 0.041 0 0.083-0.005 0.126-0.016 2.471-0.642 4.623-2.165 6.06-4.291 0.155-0.229 0.095-0.54-0.134-0.694-0.229-0.155-0.539-0.095-0.694 0.134-1.301 1.925-3.248 3.304-5.483 3.883C34.125 41.266 33.964 41.539 34.033 41.807z" fill="#61777f" data-fill-palette-color="accent"></path><path d="M27.093 40.136c-0.238-0.145-0.544-0.067-0.687 0.169-0.143 0.236-0.067 0.544 0.169 0.687C28.208 41.979 30.084 42.5 32 42.5c0.276 0 0.5-0.224 0.5-0.5s-0.224-0.5-0.5-0.5C30.267 41.5 28.57 41.028 27.093 40.136z" fill="#61777f" data-fill-palette-color="accent"></path><path d="M32 22.5c0.963 0 1.914 0.144 2.824 0.427 0.262 0.081 0.545-0.066 0.626-0.329 0.082-0.264-0.065-0.544-0.329-0.626C34.114 21.659 33.064 21.5 32 21.5c-5.79 0-10.5 4.71-10.5 10.5 0 2.043 0.587 4.024 1.699 5.729 0.096 0.146 0.256 0.227 0.419 0.227 0.094 0 0.188-0.026 0.272-0.081 0.231-0.151 0.297-0.461 0.146-0.692C23.031 35.641 22.5 33.849 22.5 32 22.5 26.762 26.762 22.5 32 22.5z" fill="#61777f" data-fill-palette-color="accent"></path><path d="M45.5 32c0 7.444-6.056 13.5-13.5 13.5-3.292 0-6.464-1.198-8.931-3.375-0.206-0.183-0.521-0.162-0.706 0.044-0.183 0.207-0.163 0.523 0.044 0.706C25.058 45.213 28.464 46.5 32 46.5c7.995 0 14.5-6.505 14.5-14.5 0-2.866-0.836-5.638-2.417-8.017-0.152-0.232-0.466-0.292-0.692-0.14-0.23 0.153-0.293 0.463-0.14 0.693C44.722 26.751 45.5 29.332 45.5 32z" fill="#61777f" data-fill-palette-color="accent"></path><path d="M18.623 33.826C18.541 33.224 18.5 32.609 18.5 32c0-0.276-0.224-0.5-0.5-0.5s-0.5 0.224-0.5 0.5c0 0.653 0.044 1.312 0.131 1.96 0.348 2.572 1.387 5.01 3.006 7.048 0.099 0.125 0.245 0.189 0.392 0.189 0.109 0 0.219-0.035 0.311-0.108 0.216-0.172 0.252-0.486 0.081-0.702C19.914 38.488 18.946 36.22 18.623 33.826z" fill="#61777f" data-fill-palette-color="accent"></path><path d="M20.428 24.618c0.16 0 0.317-0.076 0.414-0.218 2.521-3.694 6.692-5.9 11.158-5.9 2.326 0 4.618 0.601 6.629 1.737 0.238 0.134 0.545 0.051 0.682-0.189 0.136-0.241 0.051-0.545-0.189-0.681C36.961 18.146 34.498 17.5 32 17.5c-4.796 0-9.277 2.369-11.984 6.336-0.156 0.228-0.097 0.539 0.131 0.695C20.233 24.59 20.331 24.618 20.428 24.618z" fill="#61777f" data-fill-palette-color="accent"></path></g></g></svg></g></svg></g></svg></g><defs></defs></svg><rect width="395.52" height="80.23487575517082" fill="none" stroke="none" visibility="hidden"></rect></g></svg></g></svg>